<svg xmlns="http://www.w3.org/2000/svg" xmlns:xlink="http://www.w3.org/1999/xlink" width="80" zoomAndPan="magnify" viewBox="0 0 60 30.000001" height="40" preserveAspectRatio="xMidYMid meet" version="1.0"><defs><g/><clipPath id="52e48cfe05"><path d="M 5 10 L 10.160156 10 L 10.160156 16.710938 L 5 16.710938 Z M 5 10 " clip-rule="nonzero"/></clipPath><clipPath id="c6394f4a0f"><path d="M 1.722656 9.675781 L 7 9.675781 L 7 16.710938 L 1.722656 16.710938 Z M 1.722656 9.675781 " clip-rule="nonzero"/></clipPath></defs><g fill="#ffffff" fill-opacity="1"><g transform="translate(10.391073, 16.485042)"><g><path d="M 2.519531 -1.277344 L 2.519531 -2.652344 C 2.921875 -2.644531 3.328125 -2.644531 3.710938 -2.632812 C 4.242188 -2.632812 4.527344 -2.867188 4.527344 -3.289062 C 4.527344 -3.703125 4.242188 -3.933594 3.710938 -3.933594 C 3.328125 -3.921875 2.921875 -3.921875 2.519531 -3.914062 L 2.519531 -5.382812 C 3.046875 -5.375 3.585938 -5.375 4.097656 -5.367188 C 4.625 -5.367188 4.914062 -5.597656 4.914062 -6.019531 C 4.914062 -6.433594 4.625 -6.664062 4.097656 -6.664062 L 1.539062 -6.664062 C 1.007812 -6.664062 0.722656 -6.375 0.730469 -5.847656 C 0.730469 -5.007812 0.742188 -4.171875 0.742188 -3.335938 C 0.742188 -2.5 0.730469 -1.664062 0.730469 -0.816406 C 0.722656 -0.289062 1.007812 0 1.539062 0 L 4.191406 0 C 4.722656 0 5.007812 -0.230469 5.007812 -0.652344 C 5.007812 -1.066406 4.722656 -1.296875 4.191406 -1.296875 C 3.652344 -1.289062 3.085938 -1.289062 2.519531 -1.277344 Z M 2.519531 -1.277344 "/></g></g></g><g fill="#ffffff" fill-opacity="1"><g transform="translate(15.631108, 16.485042)"><g><path d="M 3.066406 -6.757812 C 1.644531 -6.757812 0.808594 -5.664062 0.585938 -2.257812 C 0.558594 -1.816406 0.546875 -1.347656 0.539062 -0.828125 C 0.527344 -0.289062 0.816406 0 1.335938 0 C 1.855469 0 2.144531 -0.289062 2.144531 -0.816406 C 2.144531 -1.058594 2.152344 -1.277344 2.152344 -1.492188 L 3.855469 -1.492188 C 3.867188 -1.25 3.867188 -1.007812 3.867188 -0.75 C 3.867188 -0.257812 4.152344 0 4.683594 0 L 4.828125 0 C 5.355469 0 5.644531 -0.308594 5.632812 -0.867188 C 5.566406 -5.367188 4.742188 -6.757812 3.066406 -6.757812 Z M 2.171875 -2.632812 C 2.242188 -4.789062 2.441406 -5.402344 2.933594 -5.402344 C 3.414062 -5.402344 3.703125 -4.789062 3.816406 -2.632812 Z M 2.171875 -2.632812 "/></g></g></g><g fill="#ffffff" fill-opacity="1"><g transform="translate(21.611484, 16.485042)"><g><path d="M 2.519531 -1.402344 L 2.519531 -3.335938 C 2.519531 -4.171875 2.527344 -5.007812 2.527344 -5.847656 C 2.527344 -6.375 2.242188 -6.664062 1.710938 -6.664062 L 1.539062 -6.664062 C 1.007812 -6.664062 0.722656 -6.375 0.730469 -5.847656 C 0.730469 -5.007812 0.742188 -4.171875 0.742188 -3.335938 C 0.742188 -2.5 0.730469 -1.664062 0.730469 -0.816406 C 0.722656 -0.289062 1.007812 0 1.539062 0 L 3.617188 0 C 4.144531 0 4.433594 -0.257812 4.433594 -0.742188 C 4.433594 -1.210938 4.132812 -1.453125 3.597656 -1.433594 C 3.242188 -1.414062 2.875 -1.414062 2.519531 -1.402344 Z M 2.519531 -1.402344 "/></g></g></g><g fill="#ffffff" fill-opacity="1"><g transform="translate(26.14964, 16.485042)"><g><path d="M 2.816406 0.0976562 C 4.546875 0.0976562 5.441406 -0.597656 5.441406 -1.921875 C 5.441406 -4.230469 2.230469 -3.230469 2.230469 -4.789062 C 2.230469 -5.25 2.414062 -5.558594 2.972656 -5.558594 C 3.433594 -5.558594 3.703125 -5.421875 3.789062 -5.019531 C 3.902344 -4.480469 4.058594 -4.191406 4.546875 -4.191406 C 5.039062 -4.191406 5.375 -4.460938 5.335938 -4.992188 C 5.25 -6.125 4.5 -6.757812 3 -6.757812 C 1.453125 -6.757812 0.566406 -6.191406 0.566406 -4.75 C 0.566406 -2.394531 3.632812 -3.144531 3.632812 -1.808594 C 3.632812 -1.414062 3.394531 -1.222656 2.875 -1.222656 C 2.566406 -1.222656 2.347656 -1.277344 2.203125 -1.414062 C 1.875 -1.769531 1.789062 -2.046875 1.328125 -2.046875 L 1.242188 -2.046875 C 0.75 -2.046875 0.382812 -1.742188 0.527344 -1.210938 C 0.769531 -0.355469 1.539062 0.0976562 2.816406 0.0976562 Z M 2.816406 0.0976562 "/></g></g></g><g fill="#ffffff" fill-opacity="1"><g transform="translate(31.774267, 16.485042)"><g><path d="M 5.394531 -6.019531 C 5.394531 -6.441406 5.105469 -6.664062 4.578125 -6.664062 L 1.058594 -6.664062 C 0.527344 -6.664062 0.242188 -6.433594 0.242188 -6.019531 C 0.242188 -5.605469 0.527344 -5.367188 1.066406 -5.367188 C 1.355469 -5.375 1.632812 -5.375 1.902344 -5.375 C 1.902344 -4.703125 1.914062 -4.019531 1.914062 -3.335938 C 1.914062 -2.492188 1.902344 -1.652344 1.894531 -0.816406 C 1.894531 -0.289062 2.183594 0 2.710938 0 L 2.882812 0 C 3.414062 0 3.703125 -0.289062 3.691406 -0.816406 C 3.691406 -1.664062 3.691406 -2.492188 3.691406 -3.335938 L 3.691406 -5.375 C 3.980469 -5.375 4.257812 -5.375 4.566406 -5.367188 C 5.105469 -5.367188 5.394531 -5.605469 5.394531 -6.019531 Z M 5.394531 -6.019531 "/></g></g></g><g fill="#ffffff" fill-opacity="1"><g transform="translate(37.216214, 16.485042)"><g><path d="M 3.308594 0.0976562 C 5.191406 0.0976562 6.125 -1.046875 6.125 -3.335938 C 6.125 -5.617188 5.191406 -6.757812 3.308594 -6.757812 C 1.421875 -6.757812 0.480469 -5.617188 0.480469 -3.335938 C 0.480469 -1.046875 1.421875 0.0976562 3.308594 0.0976562 Z M 3.308594 -1.203125 C 2.546875 -1.203125 2.316406 -1.703125 2.316406 -3.335938 C 2.316406 -4.960938 2.546875 -5.460938 3.308594 -5.460938 C 4.066406 -5.460938 4.289062 -4.960938 4.289062 -3.335938 C 4.289062 -1.703125 4.066406 -1.203125 3.308594 -1.203125 Z M 3.308594 -1.203125 "/></g></g></g><g fill="#ffffff" fill-opacity="1"><g transform="translate(43.638871, 16.485042)"><g><path d="M 1.539062 0 L 1.710938 0 C 2.242188 0 2.527344 -0.289062 2.527344 -0.816406 C 2.519531 -1.347656 2.519531 -1.875 2.519531 -2.402344 L 2.875 -2.402344 C 3.652344 -2.402344 3.914062 -1.691406 4.046875 -0.777344 C 4.125 -0.257812 4.402344 0 4.914062 0 L 5.222656 0 C 5.789062 0 6.085938 -0.347656 5.960938 -0.921875 C 5.691406 -2.117188 5.296875 -2.710938 4.664062 -2.902344 L 4.664062 -2.941406 C 5.480469 -3.144531 5.980469 -3.796875 5.980469 -4.664062 C 5.980469 -6.066406 5.144531 -6.664062 3.191406 -6.664062 L 1.539062 -6.664062 C 1.007812 -6.664062 0.722656 -6.375 0.722656 -5.847656 C 0.730469 -5.007812 0.742188 -4.171875 0.742188 -3.335938 C 0.742188 -2.492188 0.730469 -1.652344 0.722656 -0.816406 C 0.722656 -0.289062 1.007812 0 1.539062 0 Z M 2.519531 -3.460938 C 2.519531 -4.367188 2.519531 -4.855469 2.527344 -5.335938 L 2.992188 -5.335938 C 3.789062 -5.335938 4.125 -5.085938 4.125 -4.492188 C 4.125 -3.757812 3.75 -3.460938 2.847656 -3.460938 Z M 2.519531 -3.460938 "/></g></g></g><g fill="#ffffff" fill-opacity="1"><g transform="translate(50.00384, 16.485042)"><g><path d="M 6.777344 -6.664062 L 5.796875 -6.664062 C 5.316406 -6.664062 5.019531 -6.441406 4.875 -5.992188 L 4.183594 -3.835938 L 3.355469 -6.019531 C 3.191406 -6.460938 2.894531 -6.664062 2.421875 -6.664062 L 1.539062 -6.664062 C 1.007812 -6.664062 0.722656 -6.375 0.730469 -5.847656 C 0.742188 -4.164062 0.742188 -2.5 0.730469 -0.816406 C 0.722656 -0.289062 1.007812 0 1.519531 0 C 2.027344 0 2.308594 -0.289062 2.289062 -0.828125 C 2.25 -1.828125 2.230469 -2.855469 2.210938 -4.605469 L 2.257812 -4.605469 L 3.269531 -1.441406 C 3.414062 -0.992188 3.632812 -0.769531 3.960938 -0.769531 C 4.277344 -0.769531 4.507812 -0.992188 4.664062 -1.433594 L 5.757812 -4.605469 L 5.796875 -4.605469 L 5.808594 -3.335938 C 5.808594 -2.492188 5.796875 -1.652344 5.789062 -0.816406 C 5.789062 -0.289062 6.078125 0 6.605469 0 L 6.777344 0 C 7.308594 0 7.597656 -0.289062 7.597656 -0.816406 C 7.597656 -1.652344 7.585938 -2.492188 7.585938 -3.335938 C 7.585938 -4.171875 7.597656 -5.007812 7.597656 -5.847656 C 7.597656 -6.375 7.308594 -6.664062 6.777344 -6.664062 Z M 6.777344 -6.664062 "/></g></g></g><g clip-path="url(#52e48cfe05)"><path fill="#ffb444" d="M 8.3125 10.101562 C 9.414062 10.695312 10.160156 11.859375 10.160156 13.191406 C 10.160156 15.132812 8.578125 16.707031 6.628906 16.707031 C 6.367188 16.707031 6.109375 16.675781 5.863281 16.625 L 8.394531 12.527344 L 7.046875 12.527344 Z M 8.3125 10.101562 " fill-opacity="1" fill-rule="evenodd"/></g><g clip-path="url(#c6394f4a0f)"><path fill="#ef6c00" d="M 4.214844 15.757812 L 3.757812 15.757812 C 3.546875 15.757812 3.375 15.929688 3.375 16.136719 C 3.375 16.347656 3.546875 16.519531 3.757812 16.519531 L 5.484375 16.519531 L 5.867188 14.996094 L 6.058594 14.238281 L 6.09375 14.089844 L 4.617188 14.089844 L 4.890625 13.476562 L 5.230469 12.71875 L 5.570312 11.957031 L 5.910156 11.199219 L 6.25 10.4375 L 6.589844 9.679688 L 2.984375 9.679688 C 2.773438 9.679688 2.601562 9.847656 2.601562 10.058594 C 2.601562 10.265625 2.773438 10.4375 2.984375 10.4375 L 4.429688 10.4375 C 4.429688 10.4375 4.433594 10.4375 4.433594 10.4375 C 4.640625 10.441406 4.8125 10.609375 4.8125 10.816406 C 4.8125 11.027344 4.640625 11.199219 4.429688 11.199219 L 3.53125 11.199219 C 3.320312 11.199219 3.148438 11.371094 3.148438 11.578125 C 3.148438 11.71875 3.226562 11.839844 3.339844 11.90625 C 3.394531 11.941406 3.460938 11.957031 3.53125 11.957031 L 3.695312 11.957031 C 3.90625 11.957031 4.078125 12.128906 4.078125 12.339844 C 4.078125 12.546875 3.90625 12.71875 3.695312 12.71875 L 2.101562 12.71875 C 1.890625 12.71875 1.71875 12.890625 1.71875 13.097656 C 1.71875 13.308594 1.890625 13.476562 2.101562 13.476562 L 3.925781 13.476562 C 4.136719 13.476562 4.308594 13.648438 4.308594 13.859375 C 4.308594 14.066406 4.136719 14.238281 3.925781 14.238281 L 2.984375 14.238281 C 2.773438 14.238281 2.601562 14.410156 2.601562 14.617188 C 2.601562 14.828125 2.773438 14.996094 2.984375 14.996094 L 4.484375 14.996094 C 4.695312 14.996094 4.863281 15.167969 4.863281 15.378906 C 4.863281 15.585938 4.695312 15.757812 4.484375 15.757812 Z M 4.214844 15.757812 " fill-opacity="1" fill-rule="evenodd"/></g><g fill="#ffffff" fill-opacity="1"><g transform="translate(9.270359, 20.918079)"><g><path d="M 0.546875 -1.359375 L 0.015625 -1.359375 L 0.015625 -1.546875 L 1.296875 -1.546875 L 1.296875 -1.359375 L 0.765625 -1.359375 L 0.765625 0 L 0.546875 0 Z M 0.546875 -1.359375 "/></g></g></g><g fill="#ffffff" fill-opacity="1"><g transform="translate(12.342674, 20.918079)"><g><path d="M 1.5625 -1.546875 L 1.5625 0 L 1.34375 0 L 1.34375 -0.6875 L 0.453125 -0.6875 L 0.453125 0 L 0.234375 0 L 0.234375 -1.546875 L 0.453125 -1.546875 L 0.453125 -0.890625 L 1.34375 -0.890625 L 1.34375 -1.546875 Z M 1.5625 -1.546875 "/></g></g></g><g fill="#ffffff" fill-opacity="1"><g transform="translate(15.913168, 20.918079)"><g><path d="M 0.875 0.015625 C 0.664062 0.015625 0.503906 -0.0390625 0.390625 -0.15625 C 0.273438 -0.28125 0.21875 -0.453125 0.21875 -0.671875 L 0.21875 -1.546875 L 0.4375 -1.546875 L 0.4375 -0.671875 C 0.4375 -0.347656 0.582031 -0.1875 0.875 -0.1875 C 1.019531 -0.1875 1.128906 -0.222656 1.203125 -0.296875 C 1.273438 -0.378906 1.3125 -0.503906 1.3125 -0.671875 L 1.3125 -1.546875 L 1.53125 -1.546875 L 1.53125 -0.671875 C 1.53125 -0.441406 1.472656 -0.269531 1.359375 -0.15625 C 1.242188 -0.0390625 1.082031 0.015625 0.875 0.015625 Z M 0.875 0.015625 "/></g></g></g><g fill="#ffffff" fill-opacity="1"><g transform="translate(19.437166, 20.918079)"><g><path d="M 1.5625 -1.546875 L 1.5625 0 L 1.390625 0 L 0.453125 -1.15625 L 0.453125 0 L 0.234375 0 L 0.234375 -1.546875 L 0.421875 -1.546875 L 1.34375 -0.390625 L 1.34375 -1.546875 Z M 1.5625 -1.546875 "/></g></g></g><g fill="#ffffff" fill-opacity="1"><g transform="translate(23.00766, 20.918079)"><g><path d="M 0.234375 -1.546875 L 0.890625 -1.546875 C 1.054688 -1.546875 1.203125 -1.515625 1.328125 -1.453125 C 1.453125 -1.390625 1.546875 -1.296875 1.609375 -1.171875 C 1.679688 -1.054688 1.71875 -0.925781 1.71875 -0.78125 C 1.71875 -0.625 1.679688 -0.484375 1.609375 -0.359375 C 1.546875 -0.242188 1.453125 -0.15625 1.328125 -0.09375 C 1.203125 -0.03125 1.054688 0 0.890625 0 L 0.234375 0 Z M 0.875 -0.1875 C 1 -0.1875 1.109375 -0.210938 1.203125 -0.265625 C 1.296875 -0.316406 1.367188 -0.382812 1.421875 -0.46875 C 1.472656 -0.5625 1.5 -0.664062 1.5 -0.78125 C 1.5 -0.894531 1.472656 -0.992188 1.421875 -1.078125 C 1.367188 -1.171875 1.296875 -1.238281 1.203125 -1.28125 C 1.109375 -1.332031 1 -1.359375 0.875 -1.359375 L 0.453125 -1.359375 L 0.453125 -0.1875 Z M 0.875 -0.1875 "/></g></g></g><g fill="#ffffff" fill-opacity="1"><g transform="translate(26.609153, 20.918079)"><g><path d="M 1.359375 -0.1875 L 1.359375 0 L 0.234375 0 L 0.234375 -1.546875 L 1.328125 -1.546875 L 1.328125 -1.359375 L 0.453125 -1.359375 L 0.453125 -0.890625 L 1.234375 -0.890625 L 1.234375 -0.6875 L 0.453125 -0.6875 L 0.453125 -0.1875 Z M 1.359375 -0.1875 "/></g></g></g><g fill="#ffffff" fill-opacity="1"><g transform="translate(29.865239, 20.918079)"><g><path d="M 1.265625 0 L 0.9375 -0.484375 C 0.894531 -0.472656 0.863281 -0.46875 0.84375 -0.46875 L 0.453125 -0.46875 L 0.453125 0 L 0.234375 0 L 0.234375 -1.546875 L 0.84375 -1.546875 C 1.039062 -1.546875 1.195312 -1.5 1.3125 -1.40625 C 1.425781 -1.3125 1.484375 -1.179688 1.484375 -1.015625 C 1.484375 -0.890625 1.453125 -0.785156 1.390625 -0.703125 C 1.335938 -0.617188 1.253906 -0.554688 1.140625 -0.515625 L 1.515625 0 Z M 0.828125 -0.65625 C 0.972656 -0.65625 1.082031 -0.6875 1.15625 -0.75 C 1.226562 -0.8125 1.265625 -0.898438 1.265625 -1.015625 C 1.265625 -1.128906 1.226562 -1.210938 1.15625 -1.265625 C 1.082031 -1.328125 0.972656 -1.359375 0.828125 -1.359375 L 0.453125 -1.359375 L 0.453125 -0.65625 Z M 0.828125 -0.65625 "/></g></g></g><g fill="#ffffff" fill-opacity="1"><g transform="translate(33.247531, 20.918079)"><g/></g></g><g fill="#ffffff" fill-opacity="1"><g transform="translate(35.615751, 20.918079)"><g><path d="M 0.234375 -1.546875 L 0.890625 -1.546875 C 1.054688 -1.546875 1.203125 -1.515625 1.328125 -1.453125 C 1.453125 -1.390625 1.546875 -1.296875 1.609375 -1.171875 C 1.679688 -1.054688 1.71875 -0.925781 1.71875 -0.78125 C 1.71875 -0.625 1.679688 -0.484375 1.609375 -0.359375 C 1.546875 -0.242188 1.453125 -0.15625 1.328125 -0.09375 C 1.203125 -0.03125 1.054688 0 0.890625 0 L 0.234375 0 Z M 0.875 -0.1875 C 1 -0.1875 1.109375 -0.210938 1.203125 -0.265625 C 1.296875 -0.316406 1.367188 -0.382812 1.421875 -0.46875 C 1.472656 -0.5625 1.5 -0.664062 1.5 -0.78125 C 1.5 -0.894531 1.472656 -0.992188 1.421875 -1.078125 C 1.367188 -1.171875 1.296875 -1.238281 1.203125 -1.28125 C 1.109375 -1.332031 1 -1.359375 0.875 -1.359375 L 0.453125 -1.359375 L 0.453125 -0.1875 Z M 0.875 -0.1875 "/></g></g></g><g fill="#ffffff" fill-opacity="1"><g transform="translate(39.217244, 20.918079)"><g><path d="M 1.359375 -0.1875 L 1.359375 0 L 0.234375 0 L 0.234375 -1.546875 L 1.328125 -1.546875 L 1.328125 -1.359375 L 0.453125 -1.359375 L 0.453125 -0.890625 L 1.234375 -0.890625 L 1.234375 -0.6875 L 0.453125 -0.6875 L 0.453125 -0.1875 Z M 1.359375 -0.1875 "/></g></g></g><g fill="#ffffff" fill-opacity="1"><g transform="translate(42.473331, 20.918079)"><g><path d="M 1.21875 -0.390625 L 0.390625 -0.390625 L 0.21875 0 L 0 0 L 0.703125 -1.546875 L 0.921875 -1.546875 L 1.625 0 L 1.390625 0 Z M 1.140625 -0.5625 L 0.8125 -1.328125 L 0.46875 -0.5625 Z M 1.140625 -0.5625 "/></g></g></g><g fill="#ffffff" fill-opacity="1"><g transform="translate(45.866695, 20.918079)"><g><path d="M 0.234375 -1.546875 L 0.453125 -1.546875 L 0.453125 -0.1875 L 1.296875 -0.1875 L 1.296875 0 L 0.234375 0 Z M 0.234375 -1.546875 "/></g></g></g><g fill="#ffffff" fill-opacity="1"><g transform="translate(48.954507, 20.918079)"><g><path d="M 0.6875 0.015625 C 0.570312 0.015625 0.457031 0 0.34375 -0.03125 C 0.238281 -0.0703125 0.15625 -0.117188 0.09375 -0.171875 L 0.171875 -0.34375 C 0.234375 -0.289062 0.3125 -0.25 0.40625 -0.21875 C 0.5 -0.1875 0.59375 -0.171875 0.6875 -0.171875 C 0.8125 -0.171875 0.90625 -0.191406 0.96875 -0.234375 C 1.03125 -0.273438 1.0625 -0.332031 1.0625 -0.40625 C 1.0625 -0.457031 1.046875 -0.5 1.015625 -0.53125 C 0.984375 -0.570312 0.941406 -0.597656 0.890625 -0.609375 C 0.835938 -0.628906 0.765625 -0.648438 0.671875 -0.671875 C 0.554688 -0.703125 0.460938 -0.726562 0.390625 -0.75 C 0.316406 -0.78125 0.253906 -0.828125 0.203125 -0.890625 C 0.148438 -0.953125 0.125 -1.03125 0.125 -1.125 C 0.125 -1.207031 0.144531 -1.28125 0.1875 -1.34375 C 0.238281 -1.414062 0.304688 -1.472656 0.390625 -1.515625 C 0.484375 -1.554688 0.59375 -1.578125 0.71875 -1.578125 C 0.8125 -1.578125 0.898438 -1.5625 0.984375 -1.53125 C 1.078125 -1.507812 1.15625 -1.476562 1.21875 -1.4375 L 1.15625 -1.25 C 1.082031 -1.289062 1.007812 -1.320312 0.9375 -1.34375 C 0.863281 -1.363281 0.789062 -1.375 0.71875 -1.375 C 0.59375 -1.375 0.5 -1.351562 0.4375 -1.3125 C 0.375 -1.269531 0.34375 -1.210938 0.34375 -1.140625 C 0.34375 -1.085938 0.359375 -1.039062 0.390625 -1 C 0.429688 -0.96875 0.476562 -0.941406 0.53125 -0.921875 C 0.582031 -0.910156 0.65625 -0.894531 0.75 -0.875 C 0.863281 -0.84375 0.957031 -0.8125 1.03125 -0.78125 C 1.101562 -0.757812 1.160156 -0.71875 1.203125 -0.65625 C 1.253906 -0.59375 1.28125 -0.515625 1.28125 -0.421875 C 1.28125 -0.335938 1.257812 -0.257812 1.21875 -0.1875 C 1.175781 -0.125 1.109375 -0.0703125 1.015625 -0.03125 C 0.929688 0 0.820312 0.015625 0.6875 0.015625 Z M 0.6875 0.015625 "/></g></g></g><g fill="#ffffff" fill-opacity="1"><g transform="translate(52.102101, 20.918079)"><g><path d="M 0.171875 -1.546875 L 0.421875 -1.546875 L 0.375 -0.484375 L 0.21875 -0.484375 Z M 0.296875 0.015625 C 0.253906 0.015625 0.21875 0.00390625 0.1875 -0.015625 C 0.164062 -0.046875 0.15625 -0.0820312 0.15625 -0.125 C 0.15625 -0.164062 0.164062 -0.195312 0.1875 -0.21875 C 0.21875 -0.25 0.253906 -0.265625 0.296875 -0.265625 C 0.335938 -0.265625 0.367188 -0.25 0.390625 -0.21875 C 0.421875 -0.195312 0.4375 -0.164062 0.4375 -0.125 C 0.4375 -0.0820312 0.421875 -0.046875 0.390625 -0.015625 C 0.367188 0.00390625 0.335938 0.015625 0.296875 0.015625 Z M 0.296875 0.015625 "/></g></g></g></svg>